<svg xmlns="http://www.w3.org/2000/svg" width="1280" height="770" viewBox="0 0 1280 770">
      <defs>
        <linearGradient id="bgGradient" x1="0%" y1="0%" x2="100%" y2="100%">
          <stop offset="0%" stop-color="#eef6ff"/>
          <stop offset="48%" stop-color="#d9f3ee"/>
          <stop offset="100%" stop-color="#f8fbff"/>
        </linearGradient>
        <linearGradient id="barGradient" x1="0%" y1="0%" x2="100%" y2="0%">
          <stop offset="0%" stop-color="#0f5ea8"/>
          <stop offset="100%" stop-color="#23a2b6"/>
        </linearGradient>
        <style>
          .title { font: 700 44px 'Segoe UI', 'PingFang SC', sans-serif; fill: #112240; }
          .subtitle { font: 400 19px 'Segoe UI', 'PingFang SC', sans-serif; fill: #49607d; }
          .label { font: 600 18px 'Segoe UI', 'PingFang SC', sans-serif; fill: #56708f; }
          .value { font: 700 34px 'Segoe UI', 'PingFang SC', sans-serif; fill: #123254; }
          .note { font: 400 14px 'Segoe UI', 'PingFang SC', sans-serif; fill: #60758f; }
          .group-title { font: 700 22px 'Segoe UI', 'PingFang SC', sans-serif; fill: #17395c; }
          .axis { font: 500 15px 'Segoe UI', 'PingFang SC', sans-serif; fill: #506680; }
          .axis-value { font-weight: 700; fill: #153a60; }
          .axis-count { text-anchor: end; }
        </style>
      </defs>
      <rect width="100%" height="100%" rx="36" fill="url(#bgGradient)"/>
      <circle cx="1160" cy="96" r="96" fill="rgba(15, 94, 168, 0.08)"/>
      <circle cx="110" cy="682" r="140" fill="rgba(35, 162, 182, 0.08)"/>
      <text x="56" y="56" class="title">听神经瘤数据概览</text>
      <text x="56" y="90" class="subtitle">结合影像勾画信息与三维影像预览</text>
      
            <g transform="translate(56.0, 108)">
              <rect width="277.0" height="126" rx="24" fill="rgba(255,255,255,0.9)" stroke="rgba(26, 54, 93, 0.14)"/>
              <text x="24" y="38" class="label">影像记录数</text>
              <text x="24" y="82" class="value">994</text>
              <text x="24" y="108" class="note">Excel Sheet1 非空行</text>
            </g>
            
            <g transform="translate(353.0, 108)">
              <rect width="277.0" height="126" rx="24" fill="rgba(255,255,255,0.9)" stroke="rgba(26, 54, 93, 0.14)"/>
              <text x="24" y="38" class="label">平均年龄</text>
              <text x="24" y="82" class="value">44.0 岁</text>
              <text x="24" y="108" class="note">基于已填写年龄字段</text>
            </g>
            
            <g transform="translate(650.0, 108)">
              <rect width="277.0" height="126" rx="24" fill="rgba(255,255,255,0.9)" stroke="rgba(26, 54, 93, 0.14)"/>
              <text x="24" y="38" class="label">左/右侧提及</text>
              <text x="24" y="82" class="value">480/521</text>
              <text x="24" y="108" class="note">诊断文本中直接提及</text>
            </g>
            
            <g transform="translate(947.0, 108)">
              <rect width="277.0" height="126" rx="24" fill="rgba(255,255,255,0.9)" stroke="rgba(26, 54, 93, 0.14)"/>
              <text x="24" y="38" class="label">常见并发信息</text>
              <text x="24" y="82" class="value">207</text>
              <text x="24" y="108" class="note">脑积水、囊肿等关键词命中</text>
            </g>
            
      
            <g transform="translate(56.0, 268.0)">
              <rect width="570.0" height="152" rx="28" fill="rgba(255,255,255,0.86)" stroke="rgba(26, 54, 93, 0.14)"/>
              <text x="28" y="34" class="group-title">性别分布</text>
              
                <text x="28" y="68" class="axis">女</text>
                <rect x="170" y="56" width="328.00" height="14" rx="7" fill="rgba(120, 144, 156, 0.2)"/>
                <rect x="170" y="56" width="328.00" height="14" rx="7" fill="url(#barGradient)"/>
                <text x="542.00" y="68" class="axis axis-value axis-count">602</text>
                
                <text x="28" y="98" class="axis">男</text>
                <rect x="170" y="86" width="328.00" height="14" rx="7" fill="rgba(120, 144, 156, 0.2)"/>
                <rect x="170" y="86" width="213.58" height="14" rx="7" fill="url(#barGradient)"/>
                <text x="542.00" y="98" class="axis axis-value axis-count">392</text>
                
            </g>
            
            <g transform="translate(654.0, 268.0)">
              <rect width="570.0" height="182" rx="28" fill="rgba(255,255,255,0.86)" stroke="rgba(26, 54, 93, 0.14)"/>
              <text x="28" y="34" class="group-title">侧别分布</text>
              
                <text x="28" y="68" class="axis">左侧</text>
                <rect x="170" y="56" width="328.00" height="14" rx="7" fill="rgba(120, 144, 156, 0.2)"/>
                <rect x="170" y="56" width="302.19" height="14" rx="7" fill="url(#barGradient)"/>
                <text x="542.00" y="68" class="axis axis-value axis-count">480</text>
                
                <text x="28" y="98" class="axis">右侧</text>
                <rect x="170" y="86" width="328.00" height="14" rx="7" fill="rgba(120, 144, 156, 0.2)"/>
                <rect x="170" y="86" width="328.00" height="14" rx="7" fill="url(#barGradient)"/>
                <text x="542.00" y="98" class="axis axis-value axis-count">521</text>
                
                <text x="28" y="128" class="axis">未注明侧别</text>
                <rect x="170" y="116" width="328.00" height="14" rx="7" fill="rgba(120, 144, 156, 0.2)"/>
                <rect x="170" y="116" width="12.59" height="14" rx="7" fill="url(#barGradient)"/>
                <text x="542.00" y="128" class="axis axis-value axis-count">20</text>
                
            </g>
            
            <g transform="translate(56.0, 474.0)">
              <rect width="1168.0" height="242" rx="28" fill="rgba(255,255,255,0.86)" stroke="rgba(26, 54, 93, 0.14)"/>
              <text x="28" y="34" class="group-title">并发信息</text>
              
                <text x="28" y="68" class="axis">囊肿</text>
                <rect x="170" y="56" width="926.00" height="14" rx="7" fill="rgba(120, 144, 156, 0.2)"/>
                <rect x="170" y="56" width="515.91" height="14" rx="7" fill="url(#barGradient)"/>
                <text x="1140.00" y="68" class="axis axis-value axis-count">39</text>
                
                <text x="28" y="98" class="axis">脑室扩大</text>
                <rect x="170" y="86" width="926.00" height="14" rx="7" fill="rgba(120, 144, 156, 0.2)"/>
                <rect x="170" y="86" width="634.97" height="14" rx="7" fill="url(#barGradient)"/>
                <text x="1140.00" y="98" class="axis axis-value axis-count">48</text>
                
                <text x="28" y="128" class="axis">脑积水</text>
                <rect x="170" y="116" width="926.00" height="14" rx="7" fill="rgba(120, 144, 156, 0.2)"/>
                <rect x="170" y="116" width="568.83" height="14" rx="7" fill="url(#barGradient)"/>
                <text x="1140.00" y="128" class="axis axis-value axis-count">43</text>
                
                <text x="28" y="158" class="axis">鼻窦炎</text>
                <rect x="170" y="146" width="926.00" height="14" rx="7" fill="rgba(120, 144, 156, 0.2)"/>
                <rect x="170" y="146" width="926.00" height="14" rx="7" fill="url(#barGradient)"/>
                <text x="1140.00" y="158" class="axis axis-value axis-count">70</text>
                
                <text x="28" y="188" class="axis">小脑扁桃体下疝</text>
                <rect x="170" y="176" width="926.00" height="14" rx="7" fill="rgba(120, 144, 156, 0.2)"/>
                <rect x="170" y="176" width="92.60" height="14" rx="7" fill="url(#barGradient)"/>
                <text x="1140.00" y="188" class="axis axis-value axis-count">7</text>
                
            </g>
            
    </svg>