<svg xmlns="http://www.w3.org/2000/svg" width="1280" height="680" viewBox="0 0 1280 680">
      <defs>
        <linearGradient id="bgGradient" x1="0%" y1="0%" x2="100%" y2="100%">
          <stop offset="0%" stop-color="#eef6ff"/>
          <stop offset="48%" stop-color="#d9f3ee"/>
          <stop offset="100%" stop-color="#f8fbff"/>
        </linearGradient>
        <linearGradient id="barGradient" x1="0%" y1="0%" x2="100%" y2="0%">
          <stop offset="0%" stop-color="#0f5ea8"/>
          <stop offset="100%" stop-color="#23a2b6"/>
        </linearGradient>
        <style>
          .title { font: 700 44px 'Segoe UI', 'PingFang SC', sans-serif; fill: #112240; }
          .subtitle { font: 400 19px 'Segoe UI', 'PingFang SC', sans-serif; fill: #49607d; }
          .label { font: 600 18px 'Segoe UI', 'PingFang SC', sans-serif; fill: #56708f; }
          .value { font: 700 34px 'Segoe UI', 'PingFang SC', sans-serif; fill: #123254; }
          .note { font: 400 14px 'Segoe UI', 'PingFang SC', sans-serif; fill: #60758f; }
          .group-title { font: 700 22px 'Segoe UI', 'PingFang SC', sans-serif; fill: #17395c; }
          .axis { font: 500 15px 'Segoe UI', 'PingFang SC', sans-serif; fill: #506680; }
          .axis-value { font-weight: 700; fill: #153a60; }
          .axis-count { text-anchor: end; }
        </style>
      </defs>
      <rect width="100%" height="100%" rx="36" fill="url(#bgGradient)"/>
      <circle cx="1160" cy="96" r="96" fill="rgba(15, 94, 168, 0.08)"/>
      <circle cx="110" cy="592" r="140" fill="rgba(35, 162, 182, 0.08)"/>
      <text x="56" y="56" class="title">Gastrointestinal Cancer Cohort Overview</text>
      <text x="56" y="90" class="subtitle">Structured summary of colorectal cancer follow-up and pathology data</text>
      
            <g transform="translate(56.0, 108)">
              <rect width="277.0" height="126" rx="24" fill="rgba(255,255,255,0.9)" stroke="rgba(26, 54, 93, 0.14)"/>
              <text x="24" y="38" class="label">Total Records</text>
              <text x="24" y="82" class="value">2632</text>
              <text x="24" y="108" class="note">Combined from two workbooks</text>
            </g>
            
            <g transform="translate(353.0, 108)">
              <rect width="277.0" height="126" rx="24" fill="rgba(255,255,255,0.9)" stroke="rgba(26, 54, 93, 0.14)"/>
              <text x="24" y="38" class="label">Mean Age</text>
              <text x="24" y="82" class="value">63.5 years</text>
              <text x="24" y="108" class="note">Based on populated age fields</text>
            </g>
            
            <g transform="translate(650.0, 108)">
              <rect width="277.0" height="126" rx="24" fill="rgba(255,255,255,0.9)" stroke="rgba(26, 54, 93, 0.14)"/>
              <text x="24" y="38" class="label">Records with CEA</text>
              <text x="24" y="82" class="value">2624</text>
              <text x="24" y="108" class="note">Preoperative CEA available</text>
            </g>
            
            <g transform="translate(947.0, 108)">
              <rect width="277.0" height="126" rx="24" fill="rgba(255,255,255,0.9)" stroke="rgba(26, 54, 93, 0.14)"/>
              <text x="24" y="38" class="label">Records with CA19-9</text>
              <text x="24" y="82" class="value">2621</text>
              <text x="24" y="108" class="note">Preoperative CA19-9 available</text>
            </g>
            
      
            <g transform="translate(56.0, 268.0)">
              <rect width="570.0" height="152" rx="28" fill="rgba(255,255,255,0.86)" stroke="rgba(26, 54, 93, 0.14)"/>
              <text x="28" y="34" class="group-title">Cohort Size</text>
              
                <text x="28" y="68" class="axis">HMU-CRC-1</text>
                <rect x="170" y="56" width="328.00" height="14" rx="7" fill="rgba(120, 144, 156, 0.2)"/>
                <rect x="170" y="56" width="328.00" height="14" rx="7" fill="url(#barGradient)"/>
                <text x="542.00" y="68" class="axis axis-value axis-count">2175</text>
                
                <text x="28" y="98" class="axis">HMU-CRC-2</text>
                <rect x="170" y="86" width="328.00" height="14" rx="7" fill="rgba(120, 144, 156, 0.2)"/>
                <rect x="170" y="86" width="68.92" height="14" rx="7" fill="url(#barGradient)"/>
                <text x="542.00" y="98" class="axis axis-value axis-count">457</text>
                
            </g>
            
            <g transform="translate(654.0, 268.0)">
              <rect width="570.0" height="212" rx="28" fill="rgba(255,255,255,0.86)" stroke="rgba(26, 54, 93, 0.14)"/>
              <text x="28" y="34" class="group-title">Clinical Stage</text>
              
                <text x="28" y="68" class="axis">I</text>
                <rect x="170" y="56" width="328.00" height="14" rx="7" fill="rgba(120, 144, 156, 0.2)"/>
                <rect x="170" y="56" width="2.26" height="14" rx="7" fill="url(#barGradient)"/>
                <text x="542.00" y="68" class="axis axis-value axis-count">10</text>
                
                <text x="28" y="98" class="axis">II</text>
                <rect x="170" y="86" width="328.00" height="14" rx="7" fill="rgba(120, 144, 156, 0.2)"/>
                <rect x="170" y="86" width="328.00" height="14" rx="7" fill="url(#barGradient)"/>
                <text x="542.00" y="98" class="axis axis-value axis-count">1451</text>
                
                <text x="28" y="128" class="axis">III</text>
                <rect x="170" y="116" width="328.00" height="14" rx="7" fill="rgba(120, 144, 156, 0.2)"/>
                <rect x="170" y="116" width="262.90" height="14" rx="7" fill="url(#barGradient)"/>
                <text x="542.00" y="128" class="axis axis-value axis-count">1163</text>
                
                <text x="28" y="158" class="axis">IV</text>
                <rect x="170" y="146" width="328.00" height="14" rx="7" fill="rgba(120, 144, 156, 0.2)"/>
                <rect x="170" y="146" width="1.81" height="14" rx="7" fill="url(#barGradient)"/>
                <text x="542.00" y="158" class="axis axis-value axis-count">8</text>
                
            </g>
            
            <g transform="translate(56.0, 504.0)">
              <rect width="1168.0" height="122" rx="28" fill="rgba(255,255,255,0.86)" stroke="rgba(26, 54, 93, 0.14)"/>
              <text x="28" y="34" class="group-title">Survival Status</text>
              
                <text x="28" y="68" class="axis">Alive / on follow-up</text>
                <rect x="170" y="56" width="926.00" height="14" rx="7" fill="rgba(120, 144, 156, 0.2)"/>
                <rect x="170" y="56" width="926.00" height="14" rx="7" fill="url(#barGradient)"/>
                <text x="1140.00" y="68" class="axis axis-value axis-count">2632</text>
                
            </g>
            
    </svg>