<svg xmlns="http://www.w3.org/2000/svg" width="1280" height="700" viewBox="0 0 1280 700">
      <defs>
        <linearGradient id="schemaBg" x1="0%" y1="0%" x2="100%" y2="100%">
          <stop offset="0%" stop-color="#f6fbff"/>
          <stop offset="100%" stop-color="#e8f3ea"/>
        </linearGradient>
        <style>
          .title { font: 700 42px 'Segoe UI', 'PingFang SC', sans-serif; fill: #102943; }
          .subtitle { font: 400 18px 'Segoe UI', 'PingFang SC', sans-serif; fill: #4c607b; }
          .group { font: 700 26px 'Segoe UI', 'PingFang SC', sans-serif; fill: #12365e; }
          .token { font: 500 18px 'Segoe UI', 'PingFang SC', sans-serif; fill: #48627e; }
        </style>
      </defs>
      <rect width="100%" height="100%" rx="36" fill="url(#schemaBg)"/>
      <text x="56" y="62" class="title">结构化字段覆盖</text>
      <text x="56" y="94" class="subtitle">从原始表头抽取的高价值字段分组</text>
      
            <g transform="translate(56, 124)">
              <rect width="268" height="460" rx="28" fill="rgba(255,255,255,0.92)" stroke="rgba(13, 46, 82, 0.12)"/>
              <text x="28" y="54" class="group">人口学</text>
              <text x="28" y="108" class="token">病案号</text><text x="28" y="156" class="token">病理号</text><text x="28" y="204" class="token">性别</text><text x="28" y="252" class="token">年龄</text><text x="28" y="300" class="token">身高</text><text x="28" y="348" class="token">体重</text>
            </g>
            
            <g transform="translate(356, 124)">
              <rect width="268" height="460" rx="28" fill="rgba(255,255,255,0.92)" stroke="rgba(13, 46, 82, 0.12)"/>
              <text x="28" y="54" class="group">并发症与病史</text>
              <text x="28" y="108" class="token">是否吸烟</text><text x="28" y="156" class="token">是否饮酒</text><text x="28" y="204" class="token">糖尿病</text><text x="28" y="252" class="token">高血压</text><text x="28" y="300" class="token">肠梗阻</text><text x="28" y="348" class="token">肠穿孔</text>
            </g>
            
            <g transform="translate(656, 124)">
              <rect width="268" height="460" rx="28" fill="rgba(255,255,255,0.92)" stroke="rgba(13, 46, 82, 0.12)"/>
              <text x="28" y="54" class="group">肿瘤特征</text>
              <text x="28" y="108" class="token">术前CEA</text><text x="28" y="156" class="token">术前CA199</text><text x="28" y="204" class="token">T</text><text x="28" y="252" class="token">N</text><text x="28" y="300" class="token">M</text><text x="28" y="348" class="token">stage</text>
            </g>
            
            <g transform="translate(956, 124)">
              <rect width="268" height="460" rx="28" fill="rgba(255,255,255,0.92)" stroke="rgba(13, 46, 82, 0.12)"/>
              <text x="28" y="54" class="group">随访终点</text>
              <text x="28" y="108" class="token">手术时间</text><text x="28" y="156" class="token">最新随访时间</text><text x="28" y="204" class="token">生存状态</text><text x="28" y="252" class="token">OS</text><text x="28" y="300" class="token">OS.time</text>
            </g>
            
    </svg>