<svg xmlns="http://www.w3.org/2000/svg" width="1280" height="594" viewBox="0 0 1280 594">
      <defs>
        <linearGradient id="bgGradient" x1="0%" y1="0%" x2="100%" y2="100%">
          <stop offset="0%" stop-color="#eef6ff"/>
          <stop offset="48%" stop-color="#d9f3ee"/>
          <stop offset="100%" stop-color="#f8fbff"/>
        </linearGradient>
        <linearGradient id="barGradient" x1="0%" y1="0%" x2="100%" y2="0%">
          <stop offset="0%" stop-color="#0f5ea8"/>
          <stop offset="100%" stop-color="#23a2b6"/>
        </linearGradient>
        <style>
          .title { font: 700 44px 'Segoe UI', 'PingFang SC', sans-serif; fill: #112240; }
          .subtitle { font: 400 19px 'Segoe UI', 'PingFang SC', sans-serif; fill: #49607d; }
          .label { font: 600 18px 'Segoe UI', 'PingFang SC', sans-serif; fill: #56708f; }
          .value { font: 700 34px 'Segoe UI', 'PingFang SC', sans-serif; fill: #123254; }
          .note { font: 400 14px 'Segoe UI', 'PingFang SC', sans-serif; fill: #60758f; }
          .group-title { font: 700 22px 'Segoe UI', 'PingFang SC', sans-serif; fill: #17395c; }
          .axis { font: 500 15px 'Segoe UI', 'PingFang SC', sans-serif; fill: #506680; }
          .axis-value { font-weight: 700; fill: #153a60; }
          .axis-count { text-anchor: end; }
        </style>
      </defs>
      <rect width="100%" height="100%" rx="36" fill="url(#bgGradient)"/>
      <circle cx="1160" cy="96" r="96" fill="rgba(15, 94, 168, 0.08)"/>
      <circle cx="110" cy="506" r="140" fill="rgba(35, 162, 182, 0.08)"/>
      <text x="56" y="56" class="title">Ophthalmology Program Overview</text>
      <text x="56" y="90" class="subtitle">Charts reflect a demo subset; the full program exceeds 10,000 cases and can support 500,000 clinical-validation encounters</text>
      
            <g transform="translate(56.0, 108)">
              <rect width="277.0" height="126" rx="24" fill="rgba(255,255,255,0.9)" stroke="rgba(26, 54, 93, 0.14)"/>
              <text x="24" y="38" class="label">Demo Samples</text>
              <text x="24" y="82" class="value">1221</text>
              <text x="24" y="108" class="note">Samples loaded in this presentation page</text>
            </g>
            
            <g transform="translate(353.0, 108)">
              <rect width="277.0" height="126" rx="24" fill="rgba(255,255,255,0.9)" stroke="rgba(26, 54, 93, 0.14)"/>
              <text x="24" y="38" class="label">Full Program Scale</text>
              <text x="24" y="82" class="value">10,000+</text>
              <text x="24" y="108" class="note">Real-world ophthalmology cases</text>
            </g>
            
            <g transform="translate(650.0, 108)">
              <rect width="277.0" height="126" rx="24" fill="rgba(255,255,255,0.9)" stroke="rgba(26, 54, 93, 0.14)"/>
              <text x="24" y="38" class="label">Clinical Validation</text>
              <text x="24" y="82" class="value">500,000</text>
              <text x="24" y="108" class="note">Patient encounters after model development</text>
            </g>
            
            <g transform="translate(947.0, 108)">
              <rect width="277.0" height="126" rx="24" fill="rgba(255,255,255,0.9)" stroke="rgba(26, 54, 93, 0.14)"/>
              <text x="24" y="38" class="label">Disease Coverage</text>
              <text x="24" y="82" class="value">7+</text>
              <text x="24" y="108" class="note">CRVO-ME, DME, Fuchs and more</text>
            </g>
            
      
            <g transform="translate(56.0, 268.0)">
              <rect width="570.0" height="272" rx="28" fill="rgba(255,255,255,0.86)" stroke="rgba(26, 54, 93, 0.14)"/>
              <text x="28" y="34" class="group-title">Demo Disease Distribution</text>
              
                <text x="28" y="68" class="axis">Ocular Trauma</text>
                <rect x="170" y="56" width="328.00" height="14" rx="7" fill="rgba(120, 144, 156, 0.2)"/>
                <rect x="170" y="56" width="328.00" height="14" rx="7" fill="url(#barGradient)"/>
                <text x="542.00" y="68" class="axis axis-value axis-count">762</text>
                
                <text x="28" y="98" class="axis">Fuchs Syndrome</text>
                <rect x="170" y="86" width="328.00" height="14" rx="7" fill="rgba(120, 144, 156, 0.2)"/>
                <rect x="170" y="86" width="141.19" height="14" rx="7" fill="url(#barGradient)"/>
                <text x="542.00" y="98" class="axis axis-value axis-count">328</text>
                
                <text x="28" y="128" class="axis">DME</text>
                <rect x="170" y="116" width="328.00" height="14" rx="7" fill="rgba(120, 144, 156, 0.2)"/>
                <rect x="170" y="116" width="14.64" height="14" rx="7" fill="url(#barGradient)"/>
                <text x="542.00" y="128" class="axis axis-value axis-count">34</text>
                
                <text x="28" y="158" class="axis">Macular Hole</text>
                <rect x="170" y="146" width="328.00" height="14" rx="7" fill="rgba(120, 144, 156, 0.2)"/>
                <rect x="170" y="146" width="12.91" height="14" rx="7" fill="url(#barGradient)"/>
                <text x="542.00" y="158" class="axis axis-value axis-count">30</text>
                
                <text x="28" y="188" class="axis">CRVO-ME</text>
                <rect x="170" y="176" width="328.00" height="14" rx="7" fill="rgba(120, 144, 156, 0.2)"/>
                <rect x="170" y="176" width="12.05" height="14" rx="7" fill="url(#barGradient)"/>
                <text x="542.00" y="188" class="axis axis-value axis-count">28</text>
                
                <text x="28" y="218" class="axis">High Myopia</text>
                <rect x="170" y="206" width="328.00" height="14" rx="7" fill="rgba(120, 144, 156, 0.2)"/>
                <rect x="170" y="206" width="9.47" height="14" rx="7" fill="url(#barGradient)"/>
                <text x="542.00" y="218" class="axis axis-value axis-count">22</text>
                
            </g>
            
            <g transform="translate(654.0, 268.0)">
              <rect width="570.0" height="272" rx="28" fill="rgba(255,255,255,0.86)" stroke="rgba(26, 54, 93, 0.14)"/>
              <text x="28" y="34" class="group-title">Demo Modality Distribution</text>
              
                <text x="28" y="68" class="axis">CT DICOM</text>
                <rect x="170" y="56" width="328.00" height="14" rx="7" fill="rgba(120, 144, 156, 0.2)"/>
                <rect x="170" y="56" width="328.00" height="14" rx="7" fill="url(#barGradient)"/>
                <text x="542.00" y="68" class="axis axis-value axis-count">733</text>
                
                <text x="28" y="98" class="axis">MRI DICOM</text>
                <rect x="170" y="86" width="328.00" height="14" rx="7" fill="rgba(120, 144, 156, 0.2)"/>
                <rect x="170" y="86" width="132.90" height="14" rx="7" fill="url(#barGradient)"/>
                <text x="542.00" y="98" class="axis axis-value axis-count">297</text>
                
                <text x="28" y="128" class="axis">OCT</text>
                <rect x="170" y="116" width="328.00" height="14" rx="7" fill="rgba(120, 144, 156, 0.2)"/>
                <rect x="170" y="116" width="27.74" height="14" rx="7" fill="url(#barGradient)"/>
                <text x="542.00" y="128" class="axis axis-value axis-count">62</text>
                
                <text x="28" y="158" class="axis">SLO</text>
                <rect x="170" y="146" width="328.00" height="14" rx="7" fill="rgba(120, 144, 156, 0.2)"/>
                <rect x="170" y="146" width="19.69" height="14" rx="7" fill="url(#barGradient)"/>
                <text x="542.00" y="158" class="axis axis-value axis-count">44</text>
                
                <text x="28" y="188" class="axis">Other Images</text>
                <rect x="170" y="176" width="328.00" height="14" rx="7" fill="rgba(120, 144, 156, 0.2)"/>
                <rect x="170" y="176" width="12.08" height="14" rx="7" fill="url(#barGradient)"/>
                <text x="542.00" y="188" class="axis axis-value axis-count">27</text>
                
                <text x="28" y="218" class="axis">Clinical Documents</text>
                <rect x="170" y="206" width="328.00" height="14" rx="7" fill="rgba(120, 144, 156, 0.2)"/>
                <rect x="170" y="206" width="5.82" height="14" rx="7" fill="url(#barGradient)"/>
                <text x="542.00" y="218" class="axis axis-value axis-count">13</text>
                
            </g>
            
    </svg>
